<?xml version="1.0" encoding="UTF-8"?>
<!DOCTYPE svg PUBLIC "-//W3C//DTD SVG 1.1//EN" "http://www.w3.org/Graphics/SVG/1.1/DTD/svg11.dtd">
<!-- Creator: CorelDRAW 2020 (64-Bit) -->
<svg xmlns="http://www.w3.org/2000/svg" xml:space="preserve" version="1.1"
  style="shape-rendering:geometricPrecision; text-rendering:geometricPrecision; image-rendering:optimizeQuality; fill-rule:evenodd; clip-rule:evenodd"
  viewBox="0 0 16256 4400.48" xmlns:xlink="http://www.w3.org/1999/xlink"
  xmlns:xodm="http://www.corel.com/coreldraw/odm/2003">
  <defs>
    <style type="text/css">
      <![CDATA[
      .fil0 {
        fill: #D81F26;
        fill-rule: nonzero
      }

      ]]>
    </style>
  </defs>
  <g id="Layer_x0020_1">
    <metadata id="CorelCorpID_0Corel-Layer" />
    <path class="fil0"
      d="M-0 62.04c398.25,-0.45 796.55,-1.15 1196.43,-1.79 417.79,-0.67 719.63,76.32 911.96,229.35 191.28,152.19 286.11,385.52 286.11,702.77 0,83.45 0,166.42 0,249.42 0,421.67 -175.57,696.07 -528.32,825.95 0,4.43 0,8.01 0,12.03 195.06,36.59 332.93,125.07 414.53,264.6 80.94,138.44 121.92,327.96 121.92,568.03 0,237.81 0,475.64 0,713.02 0,116.03 4.87,209.71 14.63,280.21 9.76,70.53 34.14,138.77 73.16,204.82 -274.73,25.88 -549.46,52.65 -822.56,81.21 -29.26,-64.26 -48.75,-124.97 -58.53,-183.39 -9.72,-58 -14.63,-164.21 -14.63,-317.71 0,-252.09 0,-504.65 0,-757.21 0,-189.18 -39.46,-317.8 -115.41,-388.19 -75.21,-69.72 -206.5,-99.28 -391.78,-86.57 -94.3,6.45 -186.93,12.95 -279.6,20.07 0,302.53 0,605.07 0,906.71 0,302.07 0,604.61 0,906.68 -269.84,34.8 -539.7,71.84 -807.91,108.43 0,-722.86 0,-1446.15 0,-2169.01 0,-722.84 0,-1446.14 0,-2169.43zm1102.15 1795.97c160.9,-7.99 282.43,-48.09 362.51,-118.68 80.84,-71.29 121.91,-185.18 121.91,-343.14 0,-106.66 0,-212.85 0,-319.49 0,-149.93 -32.4,-257.55 -99.17,-323.5 -66.52,-65.67 -170.69,-97.41 -312.11,-95.05 -123.53,2.07 -245.45,4.48 -367.38,7.15 0,201.24 0,402.94 0,604.16 0,201.69 0,403.37 0,604.61 97.54,-5.36 195.08,-11.15 294.24,-16.06zm1858.05 -1800.45c269.86,-0.45 539.7,-0.45 809.56,-0.88 0,659.48 0,1318.52 0,1977.59 0,659.03 0,1318.09 0,1977.12 -269.86,17.85 -539.7,38.37 -809.56,58.9 0,-668.4 0,-1337.73 0,-2006.13 0,-668.42 0,-1337.72 0,-2006.6zm2550.57 3919.93c-386.94,13.81 -682.49,-54.25 -885.96,-211.97 -202.92,-157.28 -303.98,-389.07 -303.98,-695.16 0,-350.74 0,-702.34 0,-1053.06 0,-350.72 0,-702.34 0,-1053.49 0,-306.09 100.67,-544.05 303.98,-712.15 203.08,-167.86 499.07,-251.66 885.96,-251.66 386.89,0 682.51,83.24 885.95,247.65 202.93,163.98 303.99,395.79 303.99,695.19 0,135.2 0,270.41 0,405.16 -255.22,2.22 -510.43,4 -764.03,6.69 0,-148.59 0,-297.18 0,-446.2 0,-238.28 -134.95,-357.39 -403.15,-356.08 -269.86,1.34 -404.77,122.71 -404.77,362.76 0,361.87 0,723.31 0,1084.73 0,360.99 0,722.41 0,1083.83 0,236.48 134.91,349.83 404.77,341.35 268.2,-8.44 403.15,-128.95 403.15,-363.66 0,-196.31 0,-392.65 0,-588.98 253.6,-4.93 508.81,-8.5 764.03,-11.61 0,180.72 0,361.42 0,542.12 0,299.42 -101.2,532.92 -303.99,701.46 -203.58,169.19 -499.14,259.26 -885.95,273.08zm1675.99 -3922.6c712.02,0 1424.03,0 2137.67,0 0,182.51 0,365 0,547.5 -443.78,-0.9 -887.58,-1.33 -1329.74,-1.33 0,177.58 0,355.63 0,532.75 0,177.15 0,355.18 0,532.34 347.89,0 695.75,0.43 1043.63,1.77 0,182.51 0,364.56 0,547.05 -347.88,-1.79 -695.74,-2.67 -1043.63,-2.67 0,277.52 0,555.08 0,833.05 0,277.55 0,555.09 0,832.63 -269.85,0.9 -539.69,2.67 -807.93,5.34 0,-638.06 0,-1276.14 0,-1914.21 0,-637.63 0,-1275.71 0,-1914.22zm2527.81 0c268.23,0.43 538.07,0.43 807.93,0.43 0,551.51 0,1102.59 0,1654.1 0,551.51 0,1102.58 0,1654.09 443.78,13.83 887.58,30.32 1331.36,49.53 0,186.49 0,373.01 0,559.54 -713.64,-34.82 -1427.28,-60.68 -2139.29,-79.44 0,-639.39 0,-1279.26 0,-1918.69 0,-639.4 0,-1279.26 0,-1919.56zm2527.82 1.79c268.22,0 538.08,0.43 807.91,0.43 0,666.2 0,1331.93 0,1997.23 0,665.28 0,1331.03 0,1996.33 -269.83,-19.64 -539.69,-37.93 -807.91,-55.8 0,-655.91 0,-1312.72 0,-1969.11 0,-655.91 0,-1312.7 0,-1969.08zm2124.64 2009.7c-149.55,-340.9 -297.14,-679.23 -445.4,-1014.21 -147.58,-333.44 -295.86,-665.32 -443.8,-994.16 282.86,0 567.35,0.46 851.81,0.89 89.43,221.76 182.24,444.39 271.49,667.97 89.54,224.41 182.07,450.23 273.1,676.9 4.87,0 9.76,0.45 14.63,0.45 92.67,-220.88 185.56,-443.01 277.97,-666.18 92.9,-224.37 185.32,-450.23 279.62,-677.35 253.58,0.45 508.79,0.9 764.03,1.35 -149.56,351.15 -296.9,699.38 -445.43,1043.22 -147.31,341.08 -295.84,679.57 -443.78,1014.68 154.43,370.78 313.02,745.35 466.55,1122.65 155.3,381.68 312.11,768.37 468.18,1157.89 -284.49,-39.26 -568.97,-78.09 -853.46,-114.24 -99.16,-257 -197.93,-513.26 -295.84,-766.56 -97.13,-251.33 -195.08,-502.88 -292.62,-752.3 -4.87,-0.45 -9.76,-0.9 -14.63,-1.33 -100.78,233.35 -202.86,466.37 -302.36,697.86 -98.81,229.88 -199.95,459.14 -299.11,686.68 -255.21,-24.08 -510.44,-47.74 -764.03,-68.7 154.43,-331.09 310.95,-664.27 464.92,-998.59 154.86,-336.3 312.12,-676.02 468.16,-1016.92z" />
  </g>
</svg>
